HIERARCHY
ROOT Hips
{
	OFFSET 0.000000 0.000000 0.000000 
	CHANNELS 6 Xposition Yposition Zposition Zrotation Yrotation Xrotation
	JOINT LeftUpLeg
	{
		OFFSET 1.363060 -1.794630 0.839290 
		CHANNELS 3 Zrotation Yrotation Xrotation
		JOINT LeftLeg
		{
			OFFSET 2.448110 -6.726130 0.000000 
			CHANNELS 3 Zrotation Yrotation Xrotation
			JOINT LeftFoot
			{
				OFFSET 2.562200 -7.039590 0.000000 
				CHANNELS 3 Zrotation Yrotation Xrotation
				JOINT LeftToeBase
				{
					OFFSET 0.157640 -0.433110 2.322550 
					CHANNELS 3 Zrotation Yrotation Xrotation
					End Site
					{
						OFFSET 0.000000 0.000000 0.000000 
					}
				}
			}
		}
	}
	JOINT RightUpLeg
	{
		OFFSET -1.305520 -1.794630 0.839290 
		CHANNELS 3 Zrotation Yrotation Xrotation
		JOINT RightLeg
		{
			OFFSET -2.542530 -6.985550 0.000000 
			CHANNELS 3 Zrotation Yrotation Xrotation
			JOINT RightFoot
			{
				OFFSET -2.568260 -7.056230 0.000000 
				CHANNELS 3 Zrotation Yrotation Xrotation
				JOINT RightToeBase
				{
					OFFSET -0.164730 -0.452590 2.363150 
					CHANNELS 3 Zrotation Yrotation Xrotation
					End Site
					{
						OFFSET 0.000000 0.000000 0.000000 
					}
				}
			}
		}
	}
	JOINT Spine
	{
		OFFSET 0.028270 2.035590 -0.193380 
		CHANNELS 3 Zrotation Yrotation Xrotation
		JOINT Spine1
		{
			OFFSET 0.056720 2.048850 -0.042750 
			CHANNELS 3 Zrotation Yrotation Xrotation
			JOINT Neck1
			{
				OFFSET -0.054170 1.746240 0.172020 
				CHANNELS 3 Zrotation Yrotation Xrotation
				JOINT Head
				{
					OFFSET 0.104070 1.761360 -0.123970 
					CHANNELS 3 Zrotation Yrotation Xrotation
					End Site
					{
						OFFSET 0.000000 0.000000 0.000000 
					}
				}
			}
			JOINT LeftArm
			{
				OFFSET 3.362410 1.200890 -0.311210 
				CHANNELS 3 Zrotation Yrotation Xrotation
				JOINT LeftForeArm
				{
					OFFSET 4.983000 -0.000000 -0.000000 
					CHANNELS 3 Zrotation Yrotation Xrotation
					JOINT LeftHand
					{
						OFFSET 3.483560 -0.000000 -0.000000 
						CHANNELS 3 Zrotation Yrotation Xrotation
						JOINT LeftHandIndex1
						{
							OFFSET 0.715260 -0.000000 -0.000000 
							CHANNELS 3 Zrotation Yrotation Xrotation
							End Site
							{
								OFFSET 0.000000 0.000000 0.000000 
							}
						}
					}
				}
			}
			JOINT RightArm
			{
				OFFSET -3.136600 1.374050 -0.404650 
				CHANNELS 3 Zrotation Yrotation Xrotation
				JOINT RightForeArm
				{
					OFFSET -5.241900 -0.000000 -0.000000 
					CHANNELS 3 Zrotation Yrotation Xrotation
					JOINT RightHand
					{
						OFFSET -3.444170 -0.000000 -0.000000 
						CHANNELS 3 Zrotation Yrotation Xrotation
						JOINT RightHandIndex1
						{
							OFFSET -0.622530 -0.000000 -0.000000 
							CHANNELS 3 Zrotation Yrotation Xrotation
							End Site
							{
								OFFSET 0.000000 0.000000 0.000000 
							}
						}
					}
				}
			}
		}
	}
}
MOTION
Frames: 12
Frame Time: 0.041667
-36.255726 17.296326 -5.773047 152.168829 88.938084 155.591870 -24.095469 20.057120 12.687143 -0.789609 -0.595335 0.180238 0.707569 -1.336064 -6.475862 0.353000 -3.817000 -10.562300 16.474394 18.760876 -36.825386 -0.875992 -11.096658 27.200197 -0.157555 -4.189407 -15.740809 -0.236700 -3.131400 8.644800 1.012897 -2.108704 -0.898184 -1.214919 -1.283116 3.094793 6.957998 -0.181289 1.291128 0.324000 -0.116500 -0.053100 -77.287153 -8.147891 31.886584 12.426818 -22.576051 -3.504744 -1.314238 -1.004627 -12.485627 -7.125000 0.000000 0.000000 78.222279 -4.417726 12.927584 -7.350586 17.609607 -1.931352 1.050221 -0.199023 10.155592 7.125000 0.000000 0.000000 
-36.141028 17.278720 -5.777943 152.942967 88.630583 156.401884 -24.102892 19.920209 13.118317 -0.791072 -0.603328 0.179278 0.691996 -1.271073 -6.436481 0.374400 -3.930200 -10.880400 16.015184 19.022714 -36.786838 -0.755895 -10.877528 26.523326 -0.030222 -4.664089 -15.573004 -0.145900 -2.461600 6.783100 1.023325 -2.136760 -0.874832 -1.171144 -1.303759 3.217915 6.941942 -0.237267 1.188531 0.315000 -0.149400 -0.112200 -77.489519 -8.335237 31.980307 12.223150 -22.332513 -3.419995 -1.319882 -0.997536 -12.216453 -7.125000 0.000000 0.000000 78.196405 -4.414323 12.238317 -7.127612 17.306777 -1.866851 1.013413 -0.248453 10.510835 7.125000 0.000000 0.000000 
-36.023413 17.262469 -5.781902 154.361637 88.327346 157.857241 -24.076843 19.790677 13.583681 -0.791449 -0.612625 0.180245 0.678338 -1.203026 -6.459617 0.417100 -4.145600 -11.486800 15.656926 19.169664 -36.845070 -0.678870 -10.733216 26.071904 0.144303 -5.340183 -15.438413 -0.060200 -1.583700 4.356600 1.030660 -2.177795 -0.894448 -1.170334 -1.327800 3.107993 6.935870 -0.270740 1.067375 0.306200 -0.173800 -0.198500 -77.690281 -8.310957 31.949572 11.983978 -22.042493 -3.313480 -1.303381 -0.955336 -11.830559 -7.125000 0.000000 0.000000 78.263490 -4.691946 12.059308 -7.087430 17.258431 -1.858695 1.035975 -0.223153 10.594598 7.125000 0.000000 0.000000 
-35.898192 17.247467 -5.784819 156.454110 88.000627 159.980733 -23.997050 19.639652 14.097997 -0.793461 -0.624673 0.180370 0.666669 -1.176686 -6.342635 0.459300 -4.347200 -12.055500 15.450500 19.070426 -36.725790 -0.609103 -10.587104 25.646773 0.325693 -5.999933 -15.173071 -0.022800 -0.974000 2.677400 1.048819 -2.235813 -0.893917 -1.115288 -1.364894 3.133187 6.948481 -0.324298 1.019261 0.321100 -0.201400 -0.233400 -77.941069 -8.354548 31.828253 11.670115 -21.676821 -3.193874 -1.318000 -0.925412 -11.465969 -7.125000 0.000000 0.000000 78.257682 -4.855634 11.813279 -7.001644 17.148193 -1.836197 1.047728 -0.204987 10.739482 7.125000 0.000000 0.000000 
-35.774847 17.230799 -5.787736 157.623700 87.714384 161.191518 -23.919868 19.508167 14.577094 -0.794904 -0.635071 0.180485 0.654770 -1.143908 -6.247364 0.499500 -4.531200 -12.576100 15.198127 19.110092 -36.680649 -0.557756 -10.479021 25.321457 0.473055 -6.540647 -14.978923 -0.003800 -0.396600 1.089600 1.062548 -2.275754 -0.901377 -1.087723 -1.389253 3.110234 6.948803 -0.371397 0.947725 0.322000 -0.228700 -0.286500 -78.170160 -8.359860 31.705847 11.394980 -21.351603 -3.087794 -1.319809 -0.901127 -11.103378 -7.125000 0.000000 0.000000 78.285935 -5.039747 11.484649 -6.902891 17.017802 -1.810237 1.053694 -0.197042 10.934692 7.125000 0.000000 0.000000 
-35.648481 17.214339 -5.789715 158.781770 87.445577 162.394682 -23.818577 19.383935 15.056218 -0.796284 -0.645964 0.180449 0.640899 -1.110241 -6.110141 0.545300 -4.730900 -13.142800 14.996498 19.123061 -36.620231 -0.527154 -10.409462 25.112612 0.611965 -7.043784 -14.774977 -0.000100 0.071700 -0.197000 1.076597 -2.310499 -0.914013 -1.065838 -1.410015 3.067465 6.949302 -0.421677 0.888045 0.322100 -0.257300 -0.334200 -78.402643 -8.326436 31.521433 11.110780 -21.017048 -2.982447 -1.322910 -0.881698 -10.727503 -7.125000 0.000000 0.000000 78.326963 -5.241932 11.155896 -6.809520 16.893977 -1.785989 1.059950 -0.189394 11.137688 7.125000 0.000000 0.000000 
-35.518886 17.198296 -5.790965 159.785811 87.191077 163.451017 -23.698837 19.265800 15.537531 -0.797901 -0.657235 0.180018 0.626267 -1.083297 -5.921425 0.592700 -4.928800 -13.705700 14.826846 19.128998 -36.513572 -0.510527 -10.364461 24.981810 0.744542 -7.515302 -14.549557 -0.003800 0.396600 -1.089800 1.091689 -2.342924 -0.928096 -1.041216 -1.429383 3.030146 6.949333 -0.474729 0.846162 0.322200 -0.286300 -0.368300 -78.642297 -8.272932 31.265174 10.818287 -20.673606 -2.878654 -1.328145 -0.867739 -10.331864 -7.125000 0.000000 0.000000 78.368380 -5.424697 10.789296 -6.704484 16.751965 -1.758599 1.063234 -0.188140 11.377100 7.125000 0.000000 0.000000 
-35.386165 17.182774 -5.791590 160.699955 86.953224 164.424524 -23.564230 19.154009 16.012064 -0.799355 -0.668797 0.178981 0.605792 -1.037572 -5.679674 0.649600 -5.155700 -14.353100 14.681416 19.150718 -36.380021 -0.513192 -10.357074 24.962016 0.871207 -7.962404 -14.316445 -0.008300 0.587500 -1.614300 1.107806 -2.374453 -0.944758 -1.015873 -1.448030 2.994672 6.945528 -0.527247 0.820812 0.320100 -0.314000 -0.386300 -78.887387 -8.201062 30.921557 10.511367 -20.312362 -2.773766 -1.335102 -0.853293 -9.900625 -7.125000 0.000000 0.000000 78.409252 -5.589127 10.405085 -6.593538 16.599471 -1.729547 1.064670 -0.192490 11.634451 7.125000 0.000000 0.000000 
-35.249693 17.168397 -5.791590 161.516031 86.727677 165.304577 -23.414384 19.048972 16.491292 -0.800978 -0.680832 0.177332 0.582316 -0.988013 -5.375800 0.712200 -5.393400 -15.034000 14.557898 19.187995 -36.211473 -0.534193 -10.384633 25.046947 0.997994 -8.408811 -14.073065 -0.010000 0.644800 -1.772000 1.124662 -2.404836 -0.962487 -0.990573 -1.465981 2.969594 6.935972 -0.584316 0.817354 0.314700 -0.342800 -0.383700 -79.137475 -8.111404 30.498613 10.200270 -19.945763 -2.672091 -1.344483 -0.843372 -9.450982 -7.125000 0.000000 0.000000 78.448330 -5.730686 10.011951 -6.480178 16.441515 -1.700073 1.065027 -0.200981 11.900706 7.125000 0.000000 0.000000 
-35.109576 17.155063 -5.791069 162.193559 86.502546 166.049021 -23.256837 18.939107 16.973280 -0.802798 -0.693302 0.174706 0.552812 -0.918398 -5.007055 0.785100 -5.656700 -15.791600 14.450638 19.234141 -36.003589 -0.572492 -10.443583 25.227918 1.127984 -8.867070 -13.822312 -0.008100 0.579900 -1.593500 1.142248 -2.441060 -0.983058 -0.964116 -1.486464 2.945496 6.922216 -0.641170 0.832399 0.308300 -0.370400 -0.363800 -79.390057 -7.992179 29.980304 9.867040 -19.550793 -2.564884 -1.353122 -0.821845 -8.953128 -7.125000 0.000000 0.000000 78.483758 -5.855668 9.603932 -6.361256 16.273973 -1.669154 1.063966 -0.212977 12.184291 7.125000 0.000000 0.000000 
-34.965812 17.142770 -5.789923 162.835505 86.273102 166.759778 -23.086193 18.821609 17.465343 -0.804936 -0.706472 0.171201 0.518561 -0.833843 -4.568953 0.867700 -5.939300 -16.608400 14.371410 19.274691 -35.758280 -0.626985 -10.530958 25.496617 1.265863 -9.356367 -13.568000 -0.004500 0.435500 -1.196700 1.159524 -2.479833 -1.006377 -0.944769 -1.507782 2.917641 6.903476 -0.698958 0.859324 0.299700 -0.397900 -0.333100 -79.636026 -7.839912 29.390964 9.530760 -19.151292 -2.460745 -1.363447 -0.802815 -8.446132 -7.125000 0.000000 0.000000 78.525251 -5.981108 9.203499 -6.248741 16.114303 -1.640223 1.062776 -0.224964 12.447588 7.125000 0.000000 0.000000 
-34.818403 17.132248 -5.788152 163.521458 86.032372 167.514134 -22.897078 18.686904 17.966275 -0.807778 -0.720641 0.166774 0.481348 -0.743498 -4.049185 0.955200 -6.223800 -17.435100 14.339487 19.280616 -35.489339 -0.697240 -10.643183 25.844255 1.425795 -9.933160 -13.317619 -0.001700 0.263700 -0.724500 1.176100 -2.523620 -1.035615 -0.936720 -1.530626 2.867675 6.880578 -0.757278 0.896153 0.289000 -0.425400 -0.296100 -79.868115 -7.634057 28.737786 9.195447 -18.751659 -2.359273 -1.370926 -0.783346 -7.940294 -7.125000 0.000000 0.000000 78.581849 -6.125107 8.791924 -6.142078 15.962109 -1.613170 1.060728 -0.236888 12.711507 7.125000 0.000000 0.000000 
